:SAMPLES-PER-SECOND 25
:FULLY-SPECIFIED
:DEGREES
639
root  3.60858 75.4831 -9.25531 179.703 6.07666 179.557
RightUpLeg  -2.38976 7.89153 -1.83229
RightLeg  13.3887 18.5852 1.93485
RightFoot  -13.7651 -0.132455 -1.85457
RightToes  2.84633e-005 7.89722e-005 -0.000426369
Spine  1.11937 -1.99125 2.02638
Spine1  2.15939 -4.04483 4.25552
HEad  31.3089 1.47919 -6.79289
LeftShoulder1  -3.88251e-019 0 -3.92111e-022
LeftArm  -35.3528 4.71437 -85.7287
LeftForeArm  35.2031 1.8558 2.09139
LeftHand  -0.758694 -4.40367 9.26935
RightShoulder  7.45443e-017 -2.42657e-020 1.96277e-018
RightArm  -27.5245 -17.1736 71.8192
RightForeArm  22.3832 7.64364 5.84544
RightHand  -1.8018 11.1362 -12.9868
LeftUpLeg  -9.77677 -0.886729 -1.20432
LeftLeg  11.1754 5.28054 2.04323
LeftFoot  -3.7223 -0.0202857 0.642542
LeftToes  3.91355e-005 3.11907e-005 -4.10385e-006
640
root  3.18232 75.3447 -9.75991 179.85 5.96375 178.967
RightUpLeg  -3.68391 13.6702 -3.64725
RightLeg  16.8879 13.0396 3.61977
RightFoot  -15.762 -0.165241 -1.46647
RightToes  2.84633e-005 7.89722e-005 -0.000426369
Spine  1.02486 -1.69073 1.57011
Spine1  1.97598 -3.4486 3.73516
HEad  31.1303 0.334776 -6.37455
LeftShoulder1  -3.88251e-019 0 -3.92111e-022
LeftArm  -35.7216 6.41064 -85.1385
LeftForeArm  33.4439 1.90801 1.95076
LeftHand  -0.852862 -4.47669 10.3021
RightShoulder  7.45443e-017 -2.42657e-020 1.96277e-018
RightArm  -27.9713 -17.8578 71.5885
RightForeArm  23.7696 6.92718 5.23638
RightHand  -1.58018 10.7857 -11.6746
LeftUpLeg  -9.70392 -1.02669 -2.46174
LeftLeg  12.1403 5.16844 1.7912
LeftFoot  -5.01949 -0.0199851 0.910776
LeftToes  3.91355e-005 3.11907e-005 -4.10385e-006
641
root  2.82857 75.0021 -10.2119 179.66 6.14703 177.71
RightUpLeg  -6.5282 14.2631 -5.62875
RightLeg  23.882 10.6465 4.90956
RightFoot  -18.2402 -0.0872624 0.600054
RightToes  2.84633e-005 7.89722e-005 -0.000426369
Spine  1.1786 -1.48682 0.73114
Spine1  2.28446 -3.06798 2.66525
HEad  30.495 -0.441489 -6.19333
LeftShoulder1  -3.88251e-019 0 -3.92111e-022
LeftArm  -36.0452 7.00244 -84.7333
LeftForeArm  30.7552 1.95428 2.53283
LeftHand  -0.930699 -4.67049 11.009
RightShoulder  7.45443e-017 -2.42657e-020 1.96277e-018
RightArm  -27.8798 -17.8043 71.2469
RightForeArm  24.5152 6.26149 4.4509
RightHand  -1.34583 10.297 -10.311
LeftUpLeg  -10.1816 -0.676614 -4.26695
LeftLeg  14.7048 4.8601 1.58875
LeftFoot  -6.97212 0.0043683 0.985343
LeftToes  3.91355e-005 3.11907e-005 -4.10385e-006
642
root  2.55169 74.6219 -10.5913 178.783 6.96251 176.026
RightUpLeg  -11.1105 12.115 -7.57204
RightLeg  33.8367 6.78165 4.59967
RightFoot  -17.8607 0.179228 5.25077
RightToes  2.84633e-005 7.89722e-005 -0.000426369
Spine  1.67537 -1.20625 -0.532309
Spine1  3.27842 -2.56713 1.12791
HEad  29.828 -1.38576 -5.86816
LeftShoulder1  -3.88251e-019 0 -3.92111e-022
LeftArm  -35.7383 6.8413 -83.9929
LeftForeArm  28.1712 2.00497 3.03995
LeftHand  -0.998604 -4.61676 11.8413
RightShoulder  7.45443e-017 -2.42657e-020 1.96277e-018
RightArm  -28.1119 -16.6059 71.1916
RightForeArm  23.9176 5.32162 3.96055
RightHand  -1.42724 10.3735 -10.857
LeftUpLeg  -9.90764 -0.104974 -6.49521
LeftLeg  16.9154 5.08567 1.72139
LeftFoot  -8.88074 0.0288036 1.17384
LeftToes  3.91355e-005 3.11907e-005 -4.10385e-006
643
root  2.29567 74.4356 -10.9474 177.937 7.68113 175.003
RightUpLeg  -16.2947 9.60889 -8.26201
RightLeg  42.2507 2.38864 2.04381
RightFoot  -17.3121 0.0655557 3.56163
RightToes  2.84633e-005 7.89722e-005 -0.000426369
Spine  2.21051 -1.33408 -1.44726
Spine1  4.3576 -2.86048 0.207386
HEad  29.2141 -1.13806 -6.2607
LeftShoulder1  -3.88251e-019 0 -3.92111e-022
LeftArm  -36.1144 5.80231 -82.9551
LeftForeArm  26.8037 2.01999 3.8468
LeftHand  -1.10714 -4.87418 12.7841
RightShoulder  7.45443e-017 -2.42657e-020 1.96277e-018
RightArm  -27.8945 -15.3844 71.4769
RightForeArm  23.216 5.4676 4.27299
RightHand  -1.43391 10.0521 -11.1205
LeftUpLeg  -9.12337 -0.236736 -8.11992
LeftLeg  18.0279 6.11703 2.15462
LeftFoot  -10.0225 0.0351553 2.16322
LeftToes  3.91355e-005 3.11907e-005 -4.10385e-006
644
root  2.0727 74.4145 -11.3496 177.997 8.62399 175.08
RightUpLeg  -21.105 8.00374 -7.38335
RightLeg  44.7886 0.437221 0.183402
RightFoot  -17.1253 -0.0793358 0.718766
RightToes  2.84633e-005 7.89722e-005 -0.000426369
Spine  2.39191 -1.52741 -1.64403
Spine1  4.77044 -3.1515 0.059284
HEad  28.7452 0.0417719 -6.71385
LeftShoulder1  -3.88251e-019 0 -3.92111e-022
LeftArm  -36.5377 4.7143 -82.2041
LeftForeArm  28.013 1.97964 4.29822
LeftHand  -1.06394 -4.7277 12.4639
RightShoulder  7.45443e-017 -2.42657e-020 1.96277e-018
RightArm  -27.3526 -14.5527 71.9294
RightForeArm  23.168 6.46795 4.60379
RightHand  -1.58825 10.2043 -12.1466
LeftUpLeg  -8.71379 -0.542583 -8.541
LeftLeg  18.295 7.29905 2.63016
LeftFoot  -10.753 0.0505443 2.73948
LeftToes  3.91355e-005 3.11907e-005 -4.10385e-006
645
root  1.91344 74.46 -11.8318 178.247 9.25431 175.52
RightUpLeg  -24.3661 6.75525 -5.83866
RightLeg  41.7634 0.588866 0.272552
RightFoot  -14.0115 -0.10257 -0.192229
RightToes  2.84633e-005 7.89722e-005 -0.000426369
Spine  2.46856 -1.74908 -1.41936
Spine1  4.98728 -3.45139 0.106682
HEad  29.0705 0.49011 -6.923
LeftShoulder1  -3.88251e-019 0 -3.92111e-022
LeftArm  -36.2767 4.27441 -82.531
LeftForeArm  29.7616 1.93382 4.53503
LeftHand  -1.05672 -4.33896 12.8549
RightShoulder  7.45443e-017 -2.42657e-020 1.96277e-018
RightArm  -27.1314 -14.2436 71.8612
RightForeArm  22.2951 7.52536 5.36432
RightHand  -1.63391 10.6246 -12.1763
LeftUpLeg  -8.03169 -0.726963 -8.51709
LeftLeg  18.1309 8.19101 2.99348
LeftFoot  -11.4138 0.0703662 2.86958
LeftToes  3.91355e-005 3.11907e-005 -4.10385e-006
646
root  1.8157 74.5389 -12.2739 178.235 9.30653 176.457
RightUpLeg  -25.936 5.89862 -3.93945
RightLeg  35.1026 0.588795 0.192666
RightFoot  -8.26102 -0.0104901 -1.68946
RightToes  2.84633e-005 7.89722e-005 -0.000426369
Spine  2.71221 -2.09695 -0.714153
Spine1  5.50297 -4.07286 0.673369
HEad  28.7684 1.01348 -7.19787
LeftShoulder1  -3.88251e-019 0 -3.92111e-022
LeftArm  -35.5832 4.36468 -83.6468
LeftForeArm  30.1554 1.9345 3.69813
LeftHand  -1.02057 -4.44204 12.3032
RightShoulder  7.45443e-017 -2.42657e-020 1.96277e-018
RightArm  -26.324 -14.4011 71.2847
RightForeArm  21.8371 9.02699 6.55805
RightHand  -1.54238 10.674 -11.487
LeftUpLeg  -6.87343 -0.611563 -7.85113
LeftLeg  17.5738 8.25551 3.00358
LeftFoot  -11.7775 0.0825693 3.09281
LeftToes  3.91355e-005 3.11907e-005 -4.10385e-006
647
root  1.77618 74.6158 -12.709 178.307 8.6923 177.209
RightUpLeg  -26.5664 5.60339 -2.92548
RightLeg  26.423 -0.970622 -0.698239
RightFoot  -3.53877 0.119894 -2.14677
RightToes  2.84633e-005 7.89722e-005 -0.000426369
Spine  3.09943 -2.46411 0.0558092
Spine1  6.26303 -4.81238 1.21247
HEad  28.1115 0.698028 -7.55852
LeftShoulder1  -3.88251e-019 0 -3.92111e-022
LeftArm  -34.649 3.50368 -84.8917
LeftForeArm  30.7802 1.95454 2.40658
LeftHand  -1.00963 -4.97982 11.5737
RightShoulder  7.45443e-017 -2.42657e-020 1.96277e-018
RightArm  -24.8651 -14.5822 70.7788
RightForeArm  20.6837 10.7888 7.03534
RightHand  -1.61966 11.1199 -11.7264
LeftUpLeg  -5.78101 -0.750858 -7.31263
LeftLeg  16.9182 7.94081 2.87179
LeftFoot  -11.8359 0.0854703 3.3123
LeftToes  3.91355e-005 3.11907e-005 -4.10385e-006
648
root  1.82009 74.6271 -13.2313 178.417 7.68754 177.491
RightUpLeg  -26.3819 5.16276 -2.5101
RightLeg  17.2165 -2.3587 -1.52492
RightFoot  1.90193 0.132069 -1.05297
RightToes  2.84633e-005 7.89722e-005 -0.000426369
Spine  3.44115 -2.75966 0.706642
Spine1  6.8923 -5.48349 1.45496
HEad  27.7472 0.0583673 -7.57899
LeftShoulder1  -3.88251e-019 0 -3.92111e-022
LeftArm  -34.0426 2.14528 -85.9986
LeftForeArm  32.6002 1.96602 1.31428
LeftHand  -1.00455 -5.39373 11.0996
RightShoulder  7.45443e-017 -2.42657e-020 1.96277e-018
RightArm  -24.0176 -14.5895 70.0858
RightForeArm  19.3022 11.4761 7.27525
RightHand  -1.77476 11.3367 -12.6505
LeftUpLeg  -4.79222 -0.539624 -7.01306
LeftLeg  16.5049 6.76183 2.46169
LeftFoot  -12.2351 0.095581 2.91493
LeftToes  3.91355e-005 3.11907e-005 -4.10385e-006
649
root  1.89149 74.595 -13.8286 178.642 6.21719 177.463
RightUpLeg  -25.4873 1.40147 -1.33803
RightLeg  8.15435 1.35211 -1.84346
RightFoot  7.72539 -0.069067 0.691539
RightToes  2.84633e-005 7.89722e-005 -0.000426369
Spine  3.61901 -3.0288 1.02964
Spine1  7.18763 -6.10696 1.08849
HEad  27.4028 -0.855263 -6.70751
LeftShoulder1  -3.88251e-019 0 -3.92111e-022
LeftArm  -32.9758 0.775019 -86.6457
LeftForeArm  34.485 1.96129 0.759591
LeftHand  -0.996667 -5.50433 10.9095
RightShoulder  7.45443e-017 -2.42657e-020 1.96277e-018
RightArm  -25.5105 -14.8076 70.1536
RightForeArm  19.9259 10.7408 6.88952
RightHand  -1.63695 11.0883 -11.8663
LeftUpLeg  -3.9239 -0.282771 -7.02004
LeftLeg  16.2904 5.40955 2.00973
LeftFoot  -12.6991 0.113724 3.11366
LeftToes  3.91355e-005 3.11907e-005 -4.10385e-006
650
root  2.05269 74.4883 -14.5845 178.936 4.02918 177.186
RightUpLeg  -25.6623 -0.160628 -1.75545
RightLeg  3.93094 4.11783 -2.01603
RightFoot  8.49401 -0.342681 2.29464
RightToes  2.84633e-005 7.89722e-005 -0.000426369
Spine  3.58072 -3.36111 1.10936
Spine1  7.08069 -6.7975 0.80535
HEad  27.6054 -2.45353 -5.96668
LeftShoulder1  -3.88251e-019 0 -3.92111e-022
LeftArm  -32.3005 -0.549503 -87.2876
LeftForeArm  35.7359 1.98071 0.218432
LeftHand  -1.07928 -5.43426 11.8524
RightShoulder  7.45443e-017 -2.42657e-020 1.96277e-018
RightArm  -26.9133 -15.4962 70.0681
RightForeArm  20.7962 8.90239 6.2945
RightHand  -1.61837 11.34 -11.5774
LeftUpLeg  -3.15437 -0.401409 -7.15945
LeftLeg  16.7254 3.71265 1.53161
LeftFoot  -13.5686 0.144553 3.25087
LeftToes  3.91355e-005 3.11907e-005 -4.10385e-006
651
root  2.24318 74.4112 -15.4852 179.241 2.59236 177.101
RightUpLeg  -25.6704 -0.404922 -2.20431
RightLeg  3.09839 5.54649 -2.27982
RightFoot  5.4586 -0.475518 3.47201
RightToes  2.84633e-005 7.89722e-005 -0.000426369
Spine  3.65904 -3.41088 1.25044
Spine1  7.22031 -6.89249 1.02063
HEad  27.516 -3.6407 -6.02559
LeftShoulder1  -3.88251e-019 0 -3.92111e-022
LeftArm  -32.0525 -2.09025 -87.8556
LeftForeArm  36.5679 2.0186 -0.324673
LeftHand  -1.06058 -5.46682 11.6219
RightShoulder  7.45443e-017 -2.42657e-020 1.96277e-018
RightArm  -27.488 -16.2588 69.7357
RightForeArm  22.2392 7.95361 5.54071
RightHand  -1.43699 10.6302 -10.7623
LeftUpLeg  -1.96929 -0.785346 -7.02614
LeftLeg  16.8369 2.84114 1.26719
LeftFoot  -14.5835 0.170487 2.92825
LeftToes  3.91355e-005 3.11907e-005 -4.10385e-006
652
root  2.44919 74.4035 -16.4696 179.663 1.38876 177.501
RightUpLeg  -24.5423 -0.30593 -2.04391
RightLeg  3.0267 4.27938 -2.70579
RightFoot  4.73975 -0.542873 4.07156
RightToes  2.84633e-005 7.89722e-005 -0.000426369
Spine  3.69225 -3.36244 1.64839
Spine1  7.26096 -6.79651 1.82667
HEad  27.7371 -4.71336 -6.79084
LeftShoulder1  -3.88251e-019 0 -3.92111e-022
LeftArm  -31.5118 -2.25667 -88.7036
LeftForeArm  36.5091 2.03239 -0.443128
LeftHand  -1.06899 -5.46171 11.7163
RightShoulder  7.45443e-017 -2.42657e-020 1.96277e-018
RightArm  -27.9002 -17.1446 69.3074
RightForeArm  22.3163 6.93697 4.66912
RightHand  -1.40845 10.1912 -10.8391
LeftUpLeg  -0.627883 -1.49706 -6.374
LeftLeg  16.6342 2.58703 1.19176
LeftFoot  -15.4943 0.197534 2.87592
LeftToes  3.91355e-005 3.11907e-005 -4.10385e-006
653
root  2.73547 74.4117 -17.5516 -179.788 0.700192 178.174
RightUpLeg  -23.3965 -1.42089e-006 -1.42901
RightLeg  3.07154 1.47428 -2.64597
RightFoot  7.1546 -0.548927 3.66883
RightToes  2.84633e-005 7.89722e-005 -0.000426369
Spine  3.64523 -3.27401 2.10646
Spine1  7.1385 -6.62546 2.77137
HEad  28.014 -4.8578 -7.36689
LeftShoulder1  -3.88251e-019 0 -3.92111e-022
LeftArm  -31.3893 -1.98957 -88.8901
LeftForeArm  36.8818 2.03843 -0.591514
LeftHand  -1.07877 -5.50496 11.776
RightShoulder  7.45443e-017 -2.42657e-020 1.96277e-018
RightArm  -28.4717 -18.0294 69.0699
RightForeArm  22.1457 6.23797 4.14254
RightHand  -1.40816 9.85551 -11.0582
LeftUpLeg  0.836291 -1.30671 -5.11696
LeftLeg  16.1734 1.92087 0.967462
LeftFoot  -16.4361 0.23068 2.96834
LeftToes  3.91355e-005 3.11907e-005 -4.10385e-006
